<?xml version="1.0" standalone="no"?>
<!DOCTYPE svg PUBLIC "-//W3C//DTD SVG 20010904//EN"
 "http://www.w3.org/TR/2001/REC-SVG-20010904/DTD/svg10.dtd">
<svg version="1.0" xmlns="http://www.w3.org/2000/svg"
 width="300.000000pt" height="300.000000pt" viewBox="0 0 300.000000 300.000000"
 preserveAspectRatio="xMidYMid meet">
<metadata>
Created by potrace 1.14, written by Peter Selinger 2001-2017
</metadata>
<g transform="translate(0.000000,300.000000) scale(0.100000,-0.100000)"
fill="#000000" stroke="none">
<path d="M1394 2976 c-209 -97 -217 -383 -14 -486 40 -20 85 -28 190 -34 249
-14 498 -141 664 -337 151 -180 225 -388 224 -629 -1 -129 -27 -255 -77 -371
-33 -75 -99 -186 -135 -226 -216 -236 -431 -341 -716 -349 -231 -6 -421 51
-595 181 -196 146 -317 333 -374 576 -19 79 -22 288 -7 369 27 140 87 279 171
395 75 103 88 136 88 215 0 83 -29 146 -91 200 -121 107 -292 84 -401 -54
-161 -203 -265 -446 -306 -715 -17 -112 -12 -369 10 -481 37 -193 99 -354 197
-513 240 -391 642 -650 1098 -706 122 -16 360 -6 480 19 351 74 654 261 878
543 205 259 311 559 317 897 4 238 -29 414 -112 610 -231 542 -745 898 -1323
916 -104 3 -120 1 -166 -20z"/>
</g>
</svg>
